<?xml version="1.0" encoding="utf-8"?>
<!-- Generator: Adobe Illustrator 25.0.0, SVG Export Plug-In . SVG Version: 6.00 Build 0)  -->
<svg version="1.1" id="Layer_1" xmlns="http://www.w3.org/2000/svg" xmlns:xlink="http://www.w3.org/1999/xlink" x="0px" y="0px"
	 viewBox="0 0 4040 4060.9" style="enable-background:new 0 0 4040 4060.9;" xml:space="preserve">
<style type="text/css">
	.st0{fill-rule:evenodd;clip-rule:evenodd;fill:#CCCCCC;}
	.st1{font-family:'HelveticaNeue-Bold';}
	.st2{font-size:5px;}
</style>
<g>
	<path class="st0" d="M158,2637c-87,0-158-70-158-157s71-158,158-158h821c203,0,388,83,522,217c133,134,217,318,217,522v821
		c0,87-71,158-158,158s-158-71-158-158v-821c0-117-47-222-124-299s-183-125-299-125H158z M1402,158c0-87,71-158,158-158
		s158,71,158,158v821c0,203-84,387-217,521v1c-134,133-319,217-522,217H158c-87,0-158-71-158-158s71-158,158-158h821
		c116,0,222-47,299-124l0,0c77-77,124-183,124-299V158z M3882,1402c87,0,158,71,158,158s-71,158-158,158h-821c-203,0-388-84-522-218
		v1c-134-134-217-319-217-522V158c0-87,71-158,158-158s157,71,157,158v821c0,116,48,222,125,299l0,0c76,77,182,124,299,124H3882z
		 M2637,3882c0,87-70,158-157,158s-158-71-158-158v-821c0-204,83-388,217-522l0,0c134-134,319-217,522-217h821c87,0,158,71,158,158
		s-71,157-158,157h-821c-117,0-223,48-300,124l1,1c-77,77-125,182-125,299V3882z"/>
</g>
<text transform="matrix(1 0 0 1 0 4055)" class="st1 st2">Created by Ioannis Malikoutsakis</text>
<text transform="matrix(1 0 0 1 0 4060)" class="st1 st2">from the Noun Project</text>
</svg>
